<svg width="44" height="44" viewBox="0 0 44 44" fill="none" xmlns="http://www.w3.org/2000/svg">
<g filter="url(#filter0_dii_18708_11449)">
<rect x="2" y="1" width="40" height="40" rx="8" fill="white"/>
<rect x="2.5" y="1.5" width="39" height="39" rx="7.5" stroke="#E9EAEB"/>
<g clip-path="url(#clip0_18708_11449)">
<path d="M25.3331 17.667V15.167L27.8331 12.667L28.6665 14.3337L30.3331 15.167L27.8331 17.667H25.3331ZM25.3331 17.667L21.9998 21.0003M30.3332 21.0003C30.3332 25.6027 26.6022 29.3337 21.9998 29.3337C17.3975 29.3337 13.6665 25.6027 13.6665 21.0003C13.6665 16.398 17.3975 12.667 21.9998 12.667M26.1665 21.0003C26.1665 23.3015 24.301 25.167 21.9998 25.167C19.6987 25.167 17.8332 23.3015 17.8332 21.0003C17.8332 18.6991 19.6987 16.8337 21.9998 16.8337" stroke="#535862" stroke-width="1.66667" stroke-linecap="round" stroke-linejoin="round"/>
</g>
</g>
<defs>
<filter id="filter0_dii_18708_11449" x="0" y="0" width="44" height="44" filterUnits="userSpaceOnUse" color-interpolation-filters="sRGB">
<feFlood flood-opacity="0" result="BackgroundImageFix"/>
<feColorMatrix in="SourceAlpha" type="matrix" values="0 0 0 0 0 0 0 0 0 0 0 0 0 0 0 0 0 0 127 0" result="hardAlpha"/>
<feOffset dy="1"/>
<feGaussianBlur stdDeviation="1"/>
<feComposite in2="hardAlpha" operator="out"/>
<feColorMatrix type="matrix" values="0 0 0 0 0.0627451 0 0 0 0 0.0941176 0 0 0 0 0.156863 0 0 0 0.05 0"/>
<feBlend mode="normal" in2="BackgroundImageFix" result="effect1_dropShadow_18708_11449"/>
<feBlend mode="normal" in="SourceGraphic" in2="effect1_dropShadow_18708_11449" result="shape"/>
<feColorMatrix in="SourceAlpha" type="matrix" values="0 0 0 0 0 0 0 0 0 0 0 0 0 0 0 0 0 0 127 0" result="hardAlpha"/>
<feOffset dy="-2"/>
<feComposite in2="hardAlpha" operator="arithmetic" k2="-1" k3="1"/>
<feColorMatrix type="matrix" values="0 0 0 0 0.0392157 0 0 0 0 0.0496732 0 0 0 0 0.0705882 0 0 0 0.05 0"/>
<feBlend mode="normal" in2="shape" result="effect2_innerShadow_18708_11449"/>
<feColorMatrix in="SourceAlpha" type="matrix" values="0 0 0 0 0 0 0 0 0 0 0 0 0 0 0 0 0 0 127 0" result="hardAlpha"/>
<feMorphology radius="1" operator="erode" in="SourceAlpha" result="effect3_innerShadow_18708_11449"/>
<feOffset/>
<feComposite in2="hardAlpha" operator="arithmetic" k2="-1" k3="1"/>
<feColorMatrix type="matrix" values="0 0 0 0 0.0392157 0 0 0 0 0.0496732 0 0 0 0 0.0705882 0 0 0 0.18 0"/>
<feBlend mode="normal" in2="effect2_innerShadow_18708_11449" result="effect3_innerShadow_18708_11449"/>
</filter>
<clipPath id="clip0_18708_11449">
<rect width="20" height="20" fill="white" transform="translate(12 11)"/>
</clipPath>
</defs>
</svg>
