<svg width="44" height="44" viewBox="0 0 44 44" fill="none" xmlns="http://www.w3.org/2000/svg">
<g filter="url(#filter0_dii_18708_11060)">
<rect x="2" y="1" width="40" height="40" rx="8" fill="white"/>
<rect x="2.5" y="1.5" width="39" height="39" rx="7.5" stroke="#E9EAEB"/>
<path d="M18.2498 20.1667H15.8332C15.3665 20.1667 15.1331 20.1667 14.9548 20.2575C14.798 20.3374 14.6706 20.4649 14.5907 20.6217C14.4998 20.7999 14.4998 21.0333 14.4998 21.5V28.5M25.7498 20.1667H28.1665C28.6332 20.1667 28.8666 20.1667 29.0448 20.2575C29.2016 20.3374 29.3291 20.4649 29.409 20.6217C29.4998 20.7999 29.4998 21.0333 29.4998 21.5V28.5M25.7498 28.5V16.1667C25.7498 15.2332 25.7498 14.7665 25.5682 14.41C25.4084 14.0964 25.1534 13.8414 24.8398 13.6817C24.4833 13.5 24.0166 13.5 23.0832 13.5H20.9165C19.9831 13.5 19.5164 13.5 19.1599 13.6817C18.8462 13.8414 18.5913 14.0964 18.4315 14.41C18.2498 14.7665 18.2498 15.2332 18.2498 16.1667V28.5M30.3332 28.5H13.6665M21.1665 16.8333H22.8332M21.1665 20.1667H22.8332M21.1665 23.5H22.8332" stroke="#535862" stroke-width="1.66667" stroke-linecap="round" stroke-linejoin="round"/>
</g>
<defs>
<filter id="filter0_dii_18708_11060" x="0" y="0" width="44" height="44" filterUnits="userSpaceOnUse" color-interpolation-filters="sRGB">
<feFlood flood-opacity="0" result="BackgroundImageFix"/>
<feColorMatrix in="SourceAlpha" type="matrix" values="0 0 0 0 0 0 0 0 0 0 0 0 0 0 0 0 0 0 127 0" result="hardAlpha"/>
<feOffset dy="1"/>
<feGaussianBlur stdDeviation="1"/>
<feComposite in2="hardAlpha" operator="out"/>
<feColorMatrix type="matrix" values="0 0 0 0 0.0627451 0 0 0 0 0.0941176 0 0 0 0 0.156863 0 0 0 0.05 0"/>
<feBlend mode="normal" in2="BackgroundImageFix" result="effect1_dropShadow_18708_11060"/>
<feBlend mode="normal" in="SourceGraphic" in2="effect1_dropShadow_18708_11060" result="shape"/>
<feColorMatrix in="SourceAlpha" type="matrix" values="0 0 0 0 0 0 0 0 0 0 0 0 0 0 0 0 0 0 127 0" result="hardAlpha"/>
<feOffset dy="-2"/>
<feComposite in2="hardAlpha" operator="arithmetic" k2="-1" k3="1"/>
<feColorMatrix type="matrix" values="0 0 0 0 0.0392157 0 0 0 0 0.0496732 0 0 0 0 0.0705882 0 0 0 0.05 0"/>
<feBlend mode="normal" in2="shape" result="effect2_innerShadow_18708_11060"/>
<feColorMatrix in="SourceAlpha" type="matrix" values="0 0 0 0 0 0 0 0 0 0 0 0 0 0 0 0 0 0 127 0" result="hardAlpha"/>
<feMorphology radius="1" operator="erode" in="SourceAlpha" result="effect3_innerShadow_18708_11060"/>
<feOffset/>
<feComposite in2="hardAlpha" operator="arithmetic" k2="-1" k3="1"/>
<feColorMatrix type="matrix" values="0 0 0 0 0.0392157 0 0 0 0 0.0496732 0 0 0 0 0.0705882 0 0 0 0.18 0"/>
<feBlend mode="normal" in2="effect2_innerShadow_18708_11060" result="effect3_innerShadow_18708_11060"/>
</filter>
</defs>
</svg>
